<svg width="24" height="24" viewBox="0 0 24 24" fill="none" xmlns="http://www.w3.org/2000/svg">
<path d="M5 5.12671C5 4.27071 5.917 3.72871 6.667 4.14071L18.207 10.4887C18.3834 10.5858 18.5305 10.7285 18.6329 10.9018C18.7354 11.0752 18.7894 11.2729 18.7894 11.4742C18.7894 11.6756 18.7354 11.8732 18.6329 12.0466C18.5305 12.2199 18.3834 12.3626 18.207 12.4597L6.667 18.8067C6.49576 18.9009 6.30295 18.9488 6.10756 18.9457C5.91217 18.9427 5.72094 18.8888 5.5527 18.7894C5.38446 18.69 5.24502 18.5485 5.1481 18.3788C5.05119 18.2091 5.00014 18.0171 5 17.8217V5.12671Z" stroke="white" stroke-width="3" stroke-linecap="round" stroke-linejoin="round"/>
</svg>
